#!OML:ASF H:\Terrain\Walking\May29\JustinRory\Justin.ASF
:FULLY-SPECIFIED
:DEGREES
1
root 9.00556 17.9609 14.3639 -179.419 1.71368 -176.996
lowerback 2.75903 3.69856 0.594096
upperback 0.409258 4.96087 0.0807211
thorax -1.07913 2.48159 -0.427356
lowerneck -17.5729 -4.11221 -12.2844
upperneck 25.0573 -4.28766 4.6421
head 11.4578 -2.83787 3.06506
rclavicle 7.41715e-014 5.1684e-015
rhumerus -14.0481 -7.81378 -80.1084
rradius 40.2498
rwrist -20.5566
rhand -17.7492 32.8132
rfingers 7.12502
rthumb 8.51241 3.00479
lclavicle 7.41715e-014 5.1684e-015
lhumerus -38.8397 18.0209 73.7233
lradius 24.7838
lwrist -13.3926
lhand 4.40875 37.7174
lfingers 7.12502
lthumb 29.8059 65.3396
rfemur 2.84784 0.136917 20.3908
rtibia 44.6661
rfoot 9.10072 -4.52198
rtoes 10.094
lfemur -21.3557 -0.19532 -16.0058
ltibia 28.7082
lfoot -3.29369 -2.24596
ltoes -5.31334
2
root 8.9685 17.9575 14.225 -179.654 1.72238 -176.992
lowerback 3.03636 3.72474 0.677471
upperback 0.364745 4.99977 0.00503268
thorax -1.26536 2.49941 -0.573837
lowerneck -17.9843 -4.07446 -12.7873
upperneck 25.8702 -4.32416 5.40702
head 11.8835 -2.84795 3.43653
rclavicle -1.61513e-015 4.77083e-015
rhumerus -13.8345 -7.4179 -80.3851
rradius 40.3724
rwrist -20.3353
rhand -17.3395 32.981
rfingers 7.12502
rthumb 8.90776 3.18899
lclavicle -1.61513e-015 4.77083e-015
lhumerus -38.4705 17.3307 73.9696
lradius 24.9688
lwrist -13.0933
lhand 4.39299 37.6401
lfingers 7.12502
lthumb 29.7908 65.265
rfemur 1.61182 -0.29012 20.1304
rtibia 47.1722
rfoot 10.2989 -5.12961
rtoes 13.8121
lfemur -20.6055 -0.154518 -16.273
ltibia 28.4911
lfoot -3.82807 -2.05552
ltoes -10.1579
3
root 8.92586 17.9559 14.0833 -180.044 1.69704 -177.226
lowerback 3.41923 3.66154 0.497065
upperback 0.487871 4.91556 0.00152618
thorax -1.36885 2.45969 -0.497039
lowerneck -18.1026 -4.0321 -12.678
upperneck 25.8312 -4.14028 4.96303
head 11.8624 -2.80464 3.27692
rclavicle 5.76972e-014 -1.70955e-014
rhumerus -13.2907 -6.85739 -80.5668
rradius 40.4385
rwrist -20.1332
rhand -17.1931 33.1847
rfingers 7.12502
rthumb 9.04904 3.39884
lclavicle 5.76972e-014 -1.70955e-014
lhumerus -38.1021 16.9871 74.3145
lradius 25.3835
lwrist -12.8774
lhand 4.62496 37.2647
lfingers 7.12502
lthumb 30.0122 64.8497
rfemur 0.594872 -0.740694 19.5891
rtibia 49.5906
rfoot 10.5203 -5.89673
rtoes 12.5267
lfemur -19.6006 -0.225906 -16.7721
ltibia 28.1836
lfoot -4.2594 -1.80431
ltoes -9.22221
4
root 8.88222 17.9719 13.9359 -180.339 1.66846 -177.775
lowerback 3.36849 3.59348 -0.010676
upperback 0.739353 4.81197 -0.0374005
thorax -1.12201 2.41381 -0.23786
lowerneck -17.5213 -4.08307 -12.0861
upperneck 24.8313 -4.02426 3.65072
head 11.3168 -2.81369 2.7008
rclavicle -6.62201e-015 -6.36111e-015
rhumerus -12.6142 -6.19541 -80.7257
rradius 40.5906
rwrist -20.03
rhand -16.7961 33.3498
rfingers 7.12502
rthumb 9.43204 3.58084
lclavicle -6.62201e-015 -6.36111e-015
lhumerus -37.6493 16.8095 74.7853
lradius 26.006
lwrist -12.7072
lhand 4.65744 37.3971
lfingers 7.12502
lthumb 30.0432 64.9766
rfemur -0.526843 -1.38467 18.6796
rtibia 51.8536
rfoot 9.90176 -6.69521
rtoes 6.53789
lfemur -18.6528 -0.302383 -17.5972
ltibia 27.9226
lfoot -4.70035 -1.59125
ltoes -6.24435
5
root 8.8439 17.9919 13.7894 -180.613 1.73235 -178.192
lowerback 3.32864 3.67321 -0.383646
upperback 0.83866 4.908 -0.123941
thorax -1.02123 2.46415 -0.117276
lowerneck -17.9429 -3.94368 -12.5396
upperneck 25.6734 -3.86601 4.22766
head 11.7275 -2.75845 3.01718
rclavicle 1.01877e-015 7.95139e-015
rhumerus -12.2919 -5.88467 -80.8509
rradius 40.7154
rwrist -19.7734
rhand -15.7619 32.9034
rfingers 7.12502
rthumb 10.4298 3.18214
lclavicle 1.01877e-015 7.95139e-015
lhumerus -37.1447 16.0877 75.2693
lradius 26.4183
lwrist -12.3958
lhand 4.24031 37.6933
lfingers 7.12502
lthumb 29.6451 65.3443
rfemur -1.60354 -1.90507 18.0017
rtibia 53.943
rfoot 8.56448 -7.77426
rtoes 3.16606
lfemur -17.6665 -0.45864 -18.1876
ltibia 27.6596
lfoot -5.07099 -1.32661
ltoes -1.26196
6
root 8.81833 18.0022 13.6544 -180.855 1.80543 -178.569
lowerback 3.54239 3.76788 -0.742359
upperback 0.793712 5.01944 -0.276969
thorax -1.20366 2.52127 -0.0979375
lowerneck -17.6711 -4.00226 -12.5361
upperneck 25.8598 -4.04427 4.25466
head 11.7628 -2.85708 3.00098
rclavicle -7.27428e-014 -9.14409e-015
rhumerus -12.2007 -5.5671 -81.0753
rradius 40.9074
rwrist -19.7882
rhand -15.3258 32.6522
rfingers 7.12502
rthumb 10.8505 2.95252
lclavicle -7.27428e-014 -9.14409e-015
lhumerus -36.6465 15.2639 75.5608
lradius 26.6757
lwrist -12.1213
lhand 3.89466 37.345
lfingers 7.12502
lthumb 29.3151 65.0541
rfemur -2.71872 -2.27104 17.5151
rtibia 55.8623
rfoot 6.91256 -8.93075
rtoes 4.90537
lfemur -16.7693 -0.284888 -18.7305
ltibia 27.4373
lfoot -5.5805 -1.36836
ltoes 0.774253
7
root 8.79207 18.018 13.5224 -181.006 1.68784 -179.147
lowerback 3.61567 3.784 -1.34089
upperback 0.799439 5.01991 -0.459182
thorax -1.27334 2.52511 0.0408902
lowerneck -17.527 -4.05505 -12.78
upperneck 25.9377 -4.18688 4.6075
head 11.7912 -2.91041 3.1543
rclavicle -5.92751e-014 3.97569e-015
rhumerus -11.9619 -5.22323 -81.269
rradius 41.0143
rwrist -19.7353
rhand -15.4419 33.2438
rfingers 7.12502
rthumb 10.7385 3.53828
lclavicle -5.92751e-014 3.97569e-015
lhumerus -36.1308 14.5132 75.8487
lradius 27.0162
lwrist -11.7685
lhand 3.69876 37.0149
lfingers 7.12502
lthumb 29.1281 64.7565
rfemur -3.93515 -2.90257 16.7819
rtibia 57.6145
rfoot 5.56696 -10.0514
rtoes 10.0063
lfemur -15.9868 -0.232272 -19.5292
ltibia 27.2725
lfoot -6.22293 -1.45573
ltoes 1.54856
